# xmcd
#
# Track frame offsets:
#	150
#	24230
#	45175
#	67712
#	88412
#	113072
#	141092
#	166137
#	189315
#	210550
#
# Disc length: 3065 seconds
#
# Revision: 1672464947
# Processed by: cddbd v1.5.2PL0 Copyright (c) Steve Scherf et al.
# Submitted via: EZCDAudioConverter 8.0.2.1
#
DISCID=750bf70a
DTITLE=Various Artist - st. Phạm Duy. Ngày Đó Chúng Mình
DYEAR=1993
DGENRE=
TTITLE0=Ái Vân, Elvis Phương - Vợ chồng quê
TTITLE1=Duy Quang - Chuyện tình buồn - Ngàn năm vẫn không quên
TTITLE2=Thái Hiền - Nghìn trùng xa cách
TTITLE3=Phi Khanh - Bên cầu biên giới
TTITLE4=Duy Trác - Ngày Đó Chúng Mình
TTITLE5=Duy Quang, Ái Vân - Con đường tình ta đi - Trả lại em yêu
TTITLE6=Don Hồ - Em hiền như Ma Soeur
TTITLE7=Tuấn Ngọc - Tiễn em
TTITLE8=Như Mai - Nụ tầm xuân
TTITLE9=Anh Khoa - Mùa thu chết
EXTD=
EXTT0=
EXTT1=
EXTT2=
EXTT3=
EXTT4=
EXTT5=
EXTT6=
EXTT7=
EXTT8=
EXTT9=
PLAYORDER=
